# xmcd
#
# Track frame offsets:
#	150
#	69076
#	99613
#	121499
#	137540
#	171204
#	200384
#	213199
#	247937
#	288917
#
# Disc length: 4141 seconds
#
# Revision: 1
# Processed by: cddbd v1.5.2PL0 Copyright (c) Steve Scherf et al.
# Submitted via: audiograbber 1.83.01
#
DISCID=87102b0a
DTITLE=Grateful Dead - 70-10-24 Kiel Opera House, St Louis MO
DYEAR=1900
DGENRE=
TTITLE0=Dancing In The Streets
TTITLE1=It Hurts Me Too
TTITLE2=Me and My Uncle
TTITLE3=Friend Of The Devil
TTITLE4=Cold Rain and Snow
TTITLE5=Attics Of My Life
TTITLE6=Good Lovin'
TTITLE7=Drums
TTITLE8=Good Lovin'
TTITLE9=Casey Jones
EXTD=
EXTT0=
EXTT1=
EXTT2=
EXTT3=
EXTT4=
EXTT5=
EXTT6=
EXTT7=
EXTT8=
EXTT9=
PLAYORDER=
